<?xml version="1.0" encoding="iso-8859-1"?>
<!-- Uploaded to: SVG Repo, www.svgrepo.com, Generator: SVG Repo Mixer Tools -->
<svg height="800px" width="800px" version="1.1" id="Layer_1" xmlns="http://www.w3.org/2000/svg" xmlns:xlink="http://www.w3.org/1999/xlink" 
	 viewBox="0 0 390.457 390.457" xml:space="preserve">
<circle style="fill:#56ACE0;" cx="195.072" cy="195.484" r="140.929"/>
<g>
	<path style="fill:#194F82;" d="M227.589,225.803l-20.622,100.784c-1.099,8.145,9.762,8.663,10.861,2.198l20.622-100.784
		C239.484,220.437,229.787,218.756,227.589,225.803z"/>
	<path style="fill:#194F82;" d="M133.852,284.89c12.994-6.529,14.093-17.325,14.093-21.139c0-10.861-8.663-19.523-19.523-19.523
		s-19.523,8.663-19.523,19.523c0,3.232,2.715,5.43,5.43,5.43c3.232,0,5.43-2.715,5.43-5.43c0-4.848,3.814-8.663,8.663-8.663
		c4.848,0,8.663,3.814,8.663,8.663c0,1.616-0.517,7.046-8.145,10.861c-19.523,9.762-20.04,29.285-20.04,30.319
		c0,3.232,2.715,5.43,5.43,5.43h28.186c3.232,0,5.43-2.715,5.43-5.43c0-3.232-2.715-5.43-5.43-5.43h-21.657
		C122.474,294.651,125.706,288.704,133.852,284.89z"/>
	<path style="fill:#194F82;" d="M185.827,310.36c3.232,0,5.43-2.715,5.43-5.43v-8.145h2.715c3.232,0,5.43-2.715,5.43-5.43
		c0-2.715-2.715-5.43-5.43-5.43h-2.715v-35.749c0-3.232-2.715-5.43-5.43-5.43h-2.715c-2.198,0-3.814,1.099-4.848,2.715
		l-22.238,41.18c-1.616,2.715-0.517,7.564,4.848,8.145h19.523v8.145C180.462,308.227,182.595,310.36,185.827,310.36z
		 M170.118,285.472l10.279-18.941v18.941H170.118z"/>
	<path style="fill:#194F82;" d="M255.258,307.645l27.669-55.273c1.616-4.331-1.099-8.145-4.848-8.145h-27.669
		c-3.232,0-5.43,2.715-5.43,5.43c0,3.232,2.715,5.43,5.43,5.43h18.36l-23.855,47.127
		C242.199,309.843,252.542,313.657,255.258,307.645z"/>
	<path style="fill:#194F82;" d="M206.967,195.484V78.991c0-5.947-4.848-10.861-10.861-10.861c-5.947,0-10.861,4.848-10.861,10.861
		v105.697h-80.679c-5.947,0-10.861,4.848-10.861,10.861c0,5.947,4.848,10.861,10.861,10.861h91.022
		C202.118,206.344,206.967,201.431,206.967,195.484z"/>
	<path style="fill:#194F82;" d="M378.28,210.676L378.28,210.676c-5.43,0-9.762,3.814-10.861,9.244
		c-12.477,88.824-92.703,156.574-186.958,148.428c-84.04-7.564-151.208-75.83-157.22-160.388
		C15.678,106.595,96.421,22.037,196.171,22.037c52.558,0,100.267,23.855,131.685,61.22l-37.366-5.43
		c-6.529-1.099-11.895,3.814-12.477,10.279c-0.517,5.43,4.331,10.279,9.762,11.378l63.418,9.244
		c7.046,0.517,11.378-3.814,12.477-9.244l9.244-63.418c0.517-5.43-2.198-10.861-7.046-12.477
		c-6.529-2.198-12.994,2.198-14.093,8.663l-5.43,38.465C308.397,25.205,250.409-2.981,186.474,0.251
		C88.405,5.682,8.179,83.71,1.65,181.261c-8.145,113.842,82.36,209.196,194.586,209.196c98.069,0,179.911-73.18,192.97-167.499
		C390.175,216.623,384.745,210.676,378.28,210.676z"/>
</g>
</svg>